<svg xmlns="http://www.w3.org/2000/svg" width="33.482" height="33.482" viewBox="0 0 33.482 33.482">
  <g id="Group_258" data-name="Group 258" transform="translate(-0.892 1.096)">
    <g id="Group_274" data-name="Group 274">
      <path id="Path_77" data-name="Path 77" d="M78.224,16.742A8.371,8.371,0,1,1,86.6,8.372a8.38,8.38,0,0,1-8.371,8.371m0-15.14a6.77,6.77,0,1,0,6.769,6.77A6.777,6.777,0,0,0,78.224,1.6" transform="translate(-60.591 -0.597)" fill="#fff" stroke="#fff" stroke-width="1"/>
      <path id="Path_78" data-name="Path 78" d="M30.152,127.977H2.272A2.265,2.265,0,0,1,.2,126.354a3.14,3.14,0,0,1,.387-2.941q.235-.314.493-.663c3.032-4.086,8.675-11.692,15.131-11.692s12.1,7.605,15.131,11.691c.172.232.336.453.493.663a3.14,3.14,0,0,1,.387,2.941,2.265,2.265,0,0,1-2.072,1.623m-13.94-15.318c-5.863,0-11.046,6.985-14.142,11.158-.173.233-.338.456-.5.667a1.284,1.284,0,0,0-.161,1.219.928.928,0,0,0,.859.673h27.88a.927.927,0,0,0,.859-.673,1.284,1.284,0,0,0-.16-1.219q-.237-.317-.5-.667c-3.1-4.173-8.279-11.158-14.142-11.158" transform="translate(1.421 -96.09)" fill="#fff" stroke="#fff" stroke-width="1"/>
    </g>
  </g>
</svg>
